<!--?xml version="1.0" encoding="utf-8"?-->
<!-- Generator: Adobe Illustrator 22.1.0, SVG Export Plug-In . SVG Version: 6.00 Build 0)  -->
<svg version="1.1" id="_x36_" xmlns="http://www.w3.org/2000/svg" xmlns:xlink="http://www.w3.org/1999/xlink" x="0px" y="0px" viewBox="0 0 784.075 800" style="width: 512px;" xml:space="preserve">
<style type="text/css">
	.st0{fill:#040000;}
	.st1{fill:#231815;}
</style>
<g>
	<path class="st0" d="M777.074,465.064L460.942,312.342C464.922,135.543,451.452,2,392.04,2
		c-59.419,0-72.883,133.598-68.889,310.424L7.3,467.583c-2.657,0.923-4.91,3.76-5.005,6.309l-0.332,87.173
		c-0.089,2.575,2.101,4.188,4.876,3.623l323.054-91.402c4.436,85.149,9.118,154.623,15.702,207.142l-84.811,38.222
		c-2.183,0.992-4.035,4.063-4.125,6.859l-1.592,53.125c-0.088,2.783,1.744,4.752,4.064,4.381l104.047-16.612
		C370.814,787.255,380.194,798,392.04,798c11.845,0,21.231-10.745,28.863-31.598l104.052,16.612
		c2.314,0.371,4.138-1.598,4.057-4.381l-1.591-53.125c-0.083-2.796-1.935-5.867-4.133-6.859l-84.797-38.222
		c6.59-52.614,11.273-122.241,15.73-207.595l322.653,89.308c2.783,0.551,4.959-1.075,4.856-3.622l0.385-87.188
		C782.012,468.782,779.739,465.959,777.074,465.064z"></path>
	<g>
		<path class="st1" d="M197.976,445.408c0,12.865-10.44,23.292-23.312,23.292l0,0c-12.878,0-23.306-10.427-23.306-23.292V354.6
			c0-12.893,10.427-23.32,23.306-23.32l0,0c12.871,0,23.312,10.427,23.312,23.32V445.408z"></path>
		<path class="st1" d="M632.727,445.408c0,12.865-10.433,23.292-23.312,23.292l0,0c-12.871,0-23.313-10.427-23.313-23.292V354.6
			c0-12.893,10.442-23.32,23.313-23.32l0,0c12.878,0,23.312,10.427,23.312,23.32V445.408z"></path>
	</g>
</g>
</svg>
